# xmcd
#
# Track frame offsets: 
#        182
#        22457
#        39010
#        65432
#        101657
#        122575
#        143962
#        159835
#
# Disc length: 2559 seconds
#
# Revision: 73
# Processed by: cddbd v1.5.2PL0 Copyright (c) Steve Scherf et al.
# Submitted via: ExactAudioCopy v1.0b3
#
DISCID=6509fd08
DTITLE=Led Zeppelin - Led Zeppelin IV
DYEAR=1971
DGENRE=Classic Rock
TTITLE0=Black Dog
TTITLE1=Rock And Roll
TTITLE2=The Battle Of Evermore
TTITLE3=Stairway To Heaven
TTITLE4=Misty Mountain Hop
TTITLE5=Four Sticks
TTITLE6=Going To California
TTITLE7=When The Levee Breaks
EXTD=7 and Devon Rietveld\nMixed by Chris Lord-Alge YEAR: 1971
EXTT0=
EXTT1=
EXTT2=
EXTT3=
EXTT4=
EXTT5=
EXTT6=
EXTT7=
PLAYORDER=
